<svg xmlns="http://www.w3.org/2000/svg" xmlns:xlink="http://www.w3.org/1999/xlink" width="382" zoomAndPan="magnify" viewBox="0 0 286.5 77.999999" height="104" preserveAspectRatio="xMidYMid meet" version="1.0"><defs><g/><clipPath id="908c2033b1"><path d="M 12.164062 28 L 26 28 L 26 59 L 12.164062 59 Z M 12.164062 28 " clip-rule="nonzero"/></clipPath><clipPath id="e748e56b43"><path d="M 21 22.648438 L 26 22.648438 L 26 28 L 21 28 Z M 21 22.648438 " clip-rule="nonzero"/></clipPath><clipPath id="48a9cb988b"><path d="M 12.164062 29 L 14 29 L 14 32 L 12.164062 32 Z M 12.164062 29 " clip-rule="nonzero"/></clipPath><clipPath id="ec41adc354"><path d="M 29 28 L 42.859375 28 L 42.859375 59 L 29 59 Z M 29 28 " clip-rule="nonzero"/></clipPath><clipPath id="59a6b5fded"><path d="M 29 22.648438 L 34 22.648438 L 34 28 L 29 28 Z M 29 22.648438 " clip-rule="nonzero"/></clipPath><clipPath id="1fba67b66e"><path d="M 41 29 L 42.859375 29 L 42.859375 32 L 41 32 Z M 41 29 " clip-rule="nonzero"/></clipPath></defs><g clip-path="url(#908c2033b1)"><path fill="#8a3324" d="M 12.996094 39.109375 C 13.632812 41.210938 14.5 43.246094 15.03125 45.390625 C 15.566406 47.535156 16.011719 49.730469 16.183594 51.9375 C 16.246094 52.78125 16.011719 53.589844 16.128906 54.453125 C 16.257812 55.351562 16.621094 56.214844 17.183594 56.917969 C 18.496094 58.570312 20.777344 59.316406 22.730469 58.464844 C 24.554688 57.675781 25.769531 55.796875 25.769531 53.824219 C 25.769531 51.277344 23.894531 49.6875 22.273438 47.960938 C 21.375 47 20.523438 45.988281 19.988281 44.78125 C 19.46875 43.578125 19.308594 42.171875 19.832031 40.964844 C 20.34375 39.769531 21.386719 39.046875 22.390625 38.308594 C 23.347656 37.605469 24.203125 36.5625 24.808594 35.527344 C 25.832031 33.820312 26.453125 31.398438 25.121094 29.671875 C 24.382812 28.703125 23.125 28.167969 21.609375 28.167969 C 19.03125 28.167969 16.554688 29.609375 14.648438 31.238281 C 13.867188 31.902344 13.1875 32.710938 12.800781 33.660156 C 12.207031 35.121094 12.34375 36.785156 12.761719 38.308594 C 12.835938 38.578125 12.921875 38.84375 12.996094 39.109375 Z M 12.996094 39.109375 " fill-opacity="1" fill-rule="nonzero"/></g><g clip-path="url(#e748e56b43)"><path fill="#8a3324" d="M 21.566406 25.289062 C 21.558594 26.738281 22.367188 27.613281 23.371094 27.625 C 24.382812 27.636719 25.203125 26.773438 25.214844 25.320312 C 25.226562 23.871094 24.425781 22.699219 23.414062 22.6875 C 22.410156 22.675781 21.578125 23.839844 21.566406 25.289062 Z M 21.566406 25.289062 " fill-opacity="1" fill-rule="nonzero"/></g><path fill="#8a3324" d="M 18.300781 25.546875 C 18.316406 25.339844 18.363281 25.140625 18.441406 24.957031 C 18.519531 24.769531 18.625 24.605469 18.753906 24.46875 C 18.878906 24.332031 19.023438 24.230469 19.183594 24.164062 C 19.339844 24.097656 19.503906 24.070312 19.667969 24.082031 C 19.832031 24.09375 19.988281 24.148438 20.132812 24.238281 C 20.28125 24.328125 20.40625 24.453125 20.511719 24.609375 C 20.617188 24.765625 20.691406 24.941406 20.742188 25.136719 C 20.789062 25.332031 20.804688 25.535156 20.789062 25.742188 C 20.773438 25.949219 20.722656 26.148438 20.644531 26.332031 C 20.566406 26.519531 20.464844 26.683594 20.335938 26.820312 C 20.207031 26.957031 20.066406 27.058594 19.90625 27.125 C 19.746094 27.191406 19.585938 27.21875 19.421875 27.207031 C 19.257812 27.195312 19.101562 27.140625 18.953125 27.050781 C 18.808594 26.960938 18.683594 26.835938 18.578125 26.679688 C 18.472656 26.523438 18.394531 26.347656 18.347656 26.152344 C 18.300781 25.957031 18.285156 25.753906 18.300781 25.546875 Z M 18.300781 25.546875 " fill-opacity="1" fill-rule="nonzero"/><path fill="#8a3324" d="M 15.945312 26.976562 C 15.949219 26.808594 15.976562 26.648438 16.027344 26.496094 C 16.082031 26.34375 16.152344 26.207031 16.246094 26.089844 C 16.339844 25.976562 16.445312 25.886719 16.566406 25.824219 C 16.6875 25.761719 16.8125 25.734375 16.941406 25.734375 C 17.070312 25.738281 17.191406 25.773438 17.308594 25.839844 C 17.425781 25.90625 17.53125 26 17.617188 26.117188 C 17.707031 26.238281 17.773438 26.375 17.820312 26.53125 C 17.867188 26.683594 17.890625 26.847656 17.886719 27.011719 C 17.882812 27.179688 17.855469 27.339844 17.800781 27.492188 C 17.75 27.644531 17.675781 27.78125 17.585938 27.898438 C 17.492188 28.011719 17.382812 28.101562 17.265625 28.164062 C 17.144531 28.226562 17.019531 28.253906 16.890625 28.253906 C 16.761719 28.25 16.640625 28.214844 16.519531 28.148438 C 16.402344 28.082031 16.300781 27.988281 16.210938 27.871094 C 16.125 27.75 16.054688 27.613281 16.007812 27.457031 C 15.964844 27.304688 15.941406 27.140625 15.945312 26.976562 Z M 15.945312 26.976562 " fill-opacity="1" fill-rule="nonzero"/><path fill="#8a3324" d="M 14.015625 28.78125 C 13.949219 28.496094 13.964844 28.234375 14.070312 28 C 14.175781 27.761719 14.335938 27.617188 14.554688 27.5625 C 14.773438 27.511719 14.984375 27.566406 15.183594 27.730469 C 15.386719 27.890625 15.523438 28.117188 15.589844 28.398438 C 15.660156 28.683594 15.640625 28.941406 15.535156 29.179688 C 15.429688 29.417969 15.269531 29.5625 15.050781 29.617188 C 14.835938 29.667969 14.625 29.613281 14.421875 29.449219 C 14.21875 29.285156 14.085938 29.0625 14.015625 28.78125 Z M 14.015625 28.78125 " fill-opacity="1" fill-rule="nonzero"/><g clip-path="url(#48a9cb988b)"><path fill="#8a3324" d="M 12.289062 30.429688 C 12.40625 31.003906 12.824219 31.378906 13.21875 31.273438 C 13.613281 31.164062 13.828125 30.609375 13.699219 30.046875 C 13.582031 29.46875 13.164062 29.097656 12.769531 29.203125 C 12.386719 29.308594 12.164062 29.855469 12.289062 30.429688 Z M 12.289062 30.429688 " fill-opacity="1" fill-rule="nonzero"/></g><g clip-path="url(#ec41adc354)"><path fill="#8a3324" d="M 41.957031 39.109375 C 41.316406 41.210938 40.453125 43.246094 39.921875 45.390625 C 39.386719 47.535156 38.941406 49.730469 38.769531 51.9375 C 38.703125 52.78125 38.941406 53.589844 38.820312 54.453125 C 38.695312 55.351562 38.332031 56.214844 37.765625 56.917969 C 36.453125 58.570312 34.171875 59.316406 32.222656 58.464844 C 30.398438 57.675781 29.183594 55.796875 29.183594 53.824219 C 29.183594 51.277344 31.058594 49.6875 32.679688 47.960938 C 33.574219 47 34.429688 45.988281 34.960938 44.78125 C 35.484375 43.578125 35.644531 42.171875 35.121094 40.964844 C 34.609375 39.769531 33.566406 39.046875 32.5625 38.308594 C 31.601562 37.605469 30.75 36.5625 30.140625 35.527344 C 29.117188 33.820312 28.5 31.398438 29.832031 29.671875 C 30.570312 28.703125 31.828125 28.167969 33.339844 28.167969 C 35.921875 28.167969 38.394531 29.609375 40.304688 31.238281 C 41.082031 31.902344 41.765625 32.710938 42.148438 33.660156 C 42.746094 35.121094 42.609375 36.785156 42.191406 38.308594 C 42.117188 38.578125 42.03125 38.84375 41.957031 39.109375 Z M 41.957031 39.109375 " fill-opacity="1" fill-rule="nonzero"/></g><g clip-path="url(#59a6b5fded)"><path fill="#8a3324" d="M 33.382812 25.289062 C 33.394531 26.738281 32.582031 27.613281 31.582031 27.625 C 30.570312 27.636719 29.746094 26.773438 29.738281 25.320312 C 29.726562 23.871094 30.527344 22.699219 31.539062 22.6875 C 32.542969 22.675781 33.375 23.839844 33.382812 25.289062 Z M 33.382812 25.289062 " fill-opacity="1" fill-rule="nonzero"/></g><path fill="#8a3324" d="M 36.652344 25.542969 C 36.671875 25.75 36.65625 25.953125 36.605469 26.148438 C 36.558594 26.34375 36.480469 26.519531 36.375 26.675781 C 36.273438 26.832031 36.144531 26.957031 36 27.046875 C 35.855469 27.140625 35.699219 27.191406 35.535156 27.203125 C 35.367188 27.21875 35.207031 27.191406 35.046875 27.121094 C 34.890625 27.054688 34.746094 26.953125 34.617188 26.816406 C 34.488281 26.679688 34.386719 26.515625 34.308594 26.332031 C 34.230469 26.144531 34.183594 25.945312 34.167969 25.738281 C 34.148438 25.53125 34.164062 25.332031 34.214844 25.132812 C 34.261719 24.9375 34.339844 24.761719 34.441406 24.605469 C 34.546875 24.449219 34.671875 24.328125 34.820312 24.234375 C 34.964844 24.144531 35.121094 24.089844 35.285156 24.078125 C 35.453125 24.066406 35.613281 24.09375 35.773438 24.160156 C 35.929688 24.226562 36.074219 24.328125 36.203125 24.46875 C 36.332031 24.605469 36.433594 24.765625 36.511719 24.953125 C 36.589844 25.140625 36.636719 25.335938 36.652344 25.542969 Z M 36.652344 25.542969 " fill-opacity="1" fill-rule="nonzero"/><path fill="#8a3324" d="M 39.011719 26.976562 C 39.015625 27.144531 38.996094 27.304688 38.949219 27.460938 C 38.902344 27.613281 38.835938 27.75 38.746094 27.871094 C 38.65625 27.992188 38.554688 28.085938 38.4375 28.152344 C 38.320312 28.214844 38.195312 28.25 38.066406 28.253906 C 37.9375 28.257812 37.816406 28.226562 37.695312 28.164062 C 37.574219 28.101562 37.46875 28.015625 37.375 27.898438 C 37.28125 27.78125 37.207031 27.648438 37.15625 27.496094 C 37.105469 27.339844 37.078125 27.179688 37.074219 27.015625 C 37.070312 26.847656 37.089844 26.6875 37.136719 26.53125 C 37.183594 26.375 37.25 26.238281 37.339844 26.121094 C 37.429688 26 37.53125 25.90625 37.648438 25.839844 C 37.765625 25.773438 37.890625 25.738281 38.019531 25.738281 C 38.148438 25.734375 38.273438 25.765625 38.390625 25.824219 C 38.511719 25.886719 38.617188 25.976562 38.710938 26.09375 C 38.804688 26.207031 38.878906 26.34375 38.929688 26.496094 C 38.984375 26.648438 39.011719 26.808594 39.011719 26.976562 Z M 39.011719 26.976562 " fill-opacity="1" fill-rule="nonzero"/><path fill="#8a3324" d="M 40.941406 28.789062 C 40.871094 29.070312 40.738281 29.292969 40.535156 29.457031 C 40.332031 29.621094 40.125 29.675781 39.90625 29.625 C 39.6875 29.570312 39.527344 29.425781 39.421875 29.1875 C 39.316406 28.949219 39.296875 28.691406 39.367188 28.40625 C 39.433594 28.125 39.570312 27.898438 39.773438 27.738281 C 39.972656 27.574219 40.183594 27.519531 40.402344 27.570312 C 40.621094 27.625 40.78125 27.769531 40.886719 28.007812 C 40.992188 28.246094 41.011719 28.503906 40.941406 28.789062 Z M 40.941406 28.789062 " fill-opacity="1" fill-rule="nonzero"/><g clip-path="url(#1fba67b66e)"><path fill="#8a3324" d="M 42.660156 30.429688 C 42.542969 31.003906 42.128906 31.378906 41.734375 31.273438 C 41.339844 31.164062 41.125 30.609375 41.253906 30.046875 C 41.371094 29.46875 41.785156 29.097656 42.179688 29.203125 C 42.566406 29.308594 42.789062 29.855469 42.660156 30.429688 Z M 42.660156 30.429688 " fill-opacity="1" fill-rule="nonzero"/></g><g fill="#0b3d2e" fill-opacity="1"><g transform="translate(44.306244, 55.227348)"><g><path d="M 2.734375 -18.765625 C 2.679688 -19.085938 2.617188 -19.289062 2.546875 -19.375 C 2.722656 -19.820312 2.851562 -20.265625 2.9375 -20.703125 C 3.019531 -21.148438 3.085938 -21.578125 3.140625 -21.984375 C 3.191406 -22.335938 3.25 -22.664062 3.3125 -22.96875 C 3.375 -23.269531 3.457031 -23.5625 3.5625 -23.84375 C 3.988281 -23.945312 4.3125 -24.128906 4.53125 -24.390625 C 4.75 -24.648438 4.921875 -24.882812 5.046875 -25.09375 C 5.492188 -25.113281 5.785156 -25.046875 5.921875 -24.890625 C 6.066406 -24.742188 6.226562 -24.492188 6.40625 -24.140625 C 6.53125 -23.867188 6.707031 -23.570312 6.9375 -23.25 C 7.164062 -22.9375 7.503906 -22.691406 7.953125 -22.515625 C 8.035156 -22.234375 8.125 -21.96875 8.21875 -21.71875 C 8.320312 -21.46875 8.4375 -21.203125 8.5625 -20.921875 C 8.789062 -20.390625 9.003906 -19.835938 9.203125 -19.265625 C 9.410156 -18.703125 9.523438 -18.164062 9.546875 -17.65625 C 9.242188 -17.082031 9.007812 -16.414062 8.84375 -15.65625 C 8.6875 -14.894531 8.585938 -14.128906 8.546875 -13.359375 C 8.503906 -12.585938 8.519531 -11.847656 8.59375 -11.140625 C 8.675781 -10.429688 8.804688 -9.835938 8.984375 -9.359375 L 9.203125 -8.75 L 10.046875 -8.828125 C 10.953125 -9.054688 11.769531 -9.316406 12.5 -9.609375 C 13.238281 -9.898438 13.921875 -10.242188 14.546875 -10.640625 C 15.179688 -11.046875 15.789062 -11.507812 16.375 -12.03125 C 16.957031 -12.550781 17.5625 -13.164062 18.1875 -13.875 C 18.800781 -14.582031 19.347656 -15.382812 19.828125 -16.28125 C 20.304688 -17.175781 20.703125 -18.101562 21.015625 -19.0625 C 21.328125 -20.019531 21.570312 -20.976562 21.75 -21.9375 C 21.925781 -22.90625 22.039062 -23.804688 22.09375 -24.640625 C 22.570312 -24.867188 22.835938 -25.234375 22.890625 -25.734375 L 22.78125 -26.234375 C 22.707031 -26.359375 22.675781 -26.476562 22.6875 -26.59375 C 22.695312 -26.707031 22.726562 -26.8125 22.78125 -26.90625 C 22.976562 -27.488281 23.40625 -27.921875 24.0625 -28.203125 C 24.519531 -27.898438 24.941406 -27.570312 25.328125 -27.21875 C 25.722656 -26.863281 26.085938 -26.507812 26.421875 -26.15625 C 26.472656 -25.46875 26.570312 -24.878906 26.71875 -24.390625 C 26.875 -23.898438 27.039062 -23.425781 27.21875 -22.96875 C 27.394531 -22.539062 27.550781 -22.125 27.6875 -21.71875 C 27.820312 -21.3125 27.914062 -20.816406 27.96875 -20.234375 C 27.71875 -19.484375 27.535156 -18.769531 27.421875 -18.09375 C 27.304688 -17.425781 27.195312 -16.726562 27.09375 -16 L 27.03125 -15.578125 C 26.570312 -14.796875 26.117188 -13.992188 25.671875 -13.171875 C 25.234375 -12.347656 24.875 -11.632812 24.59375 -11.03125 C 24.445312 -10.875 24.316406 -10.695312 24.203125 -10.5 C 24.085938 -10.300781 23.976562 -10.097656 23.875 -9.890625 C 23.820312 -9.816406 23.75 -9.691406 23.65625 -9.515625 C 23.570312 -9.335938 23.492188 -9.210938 23.421875 -9.140625 L 22.515625 -9.46875 L 22.28125 -8.296875 L 21.6875 -8.15625 L 21.21875 -7.625 C 20.644531 -6.613281 20.035156 -5.765625 19.390625 -5.078125 C 18.742188 -4.398438 18.019531 -3.796875 17.21875 -3.265625 C 16.425781 -2.734375 15.53125 -2.234375 14.53125 -1.765625 C 13.53125 -1.296875 12.390625 -0.796875 11.109375 -0.265625 C 10.597656 -0.335938 10.160156 -0.378906 9.796875 -0.390625 C 9.429688 -0.410156 9.070312 -0.429688 8.71875 -0.453125 C 8.363281 -0.453125 8.019531 -0.460938 7.6875 -0.484375 C 7.363281 -0.515625 6.988281 -0.554688 6.5625 -0.609375 C 6.457031 -0.835938 6.316406 -1 6.140625 -1.09375 C 5.960938 -1.195312 5.796875 -1.25 5.640625 -1.25 C 5.140625 -1.5 4.757812 -1.851562 4.5 -2.3125 C 4.25 -2.769531 3.988281 -3.273438 3.71875 -3.828125 C 3.59375 -4.128906 3.457031 -4.429688 3.3125 -4.734375 C 3.175781 -5.035156 3.007812 -5.328125 2.8125 -5.609375 L 3.5625 -5.84375 L 2.578125 -6.96875 C 2.503906 -7.050781 2.421875 -7.128906 2.328125 -7.203125 C 2.242188 -7.273438 2.160156 -7.363281 2.078125 -7.46875 L 2.078125 -8.1875 C 1.984375 -10.257812 1.941406 -12.171875 1.953125 -13.921875 C 1.960938 -15.679688 2.195312 -17.234375 2.65625 -18.578125 Z M 2.734375 -18.765625 "/></g></g></g><g fill="#0b3d2e" fill-opacity="1"><g transform="translate(71.286714, 55.227348)"><g><path d="M 3.40625 0.53125 C 3.15625 0.53125 2.765625 0.492188 2.234375 0.421875 C 1.828125 -0.015625 1.46875 -0.601562 1.15625 -1.34375 C 0.84375 -2.09375 0.601562 -2.890625 0.4375 -3.734375 C 0.269531 -4.578125 0.191406 -5.421875 0.203125 -6.265625 C 0.222656 -7.117188 0.367188 -7.875 0.640625 -8.53125 C 0.640625 -8.550781 0.757812 -8.851562 1 -9.4375 C 1.238281 -10.019531 1.546875 -10.757812 1.921875 -11.65625 C 2.304688 -12.550781 2.738281 -13.546875 3.21875 -14.640625 C 3.695312 -15.742188 4.175781 -16.828125 4.65625 -17.890625 C 5.132812 -18.953125 5.59375 -19.914062 6.03125 -20.78125 C 6.476562 -21.65625 6.867188 -22.332031 7.203125 -22.8125 C 7.429688 -23.164062 7.640625 -23.503906 7.828125 -23.828125 C 8.015625 -24.160156 8.195312 -24.46875 8.375 -24.75 C 8.65625 -25.207031 8.914062 -25.628906 9.15625 -26.015625 C 9.394531 -26.410156 9.660156 -26.765625 9.953125 -27.078125 C 10.242188 -27.398438 10.566406 -27.679688 10.921875 -27.921875 C 11.273438 -28.160156 11.703125 -28.367188 12.203125 -28.546875 C 12.503906 -28.410156 12.769531 -28.273438 13 -28.140625 C 13.226562 -28.003906 13.429688 -27.832031 13.609375 -27.625 L 13.71875 -27.09375 C 13.769531 -26.914062 13.851562 -26.796875 13.96875 -26.734375 C 14.082031 -26.671875 14.175781 -26.640625 14.25 -26.640625 C 14.582031 -26.566406 14.867188 -26.484375 15.109375 -26.390625 C 15.347656 -26.304688 15.601562 -26.253906 15.875 -26.234375 C 15.976562 -26.078125 16.070312 -25.921875 16.15625 -25.765625 C 16.25 -25.617188 16.347656 -25.484375 16.453125 -25.359375 C 16.953125 -24.628906 17.363281 -23.921875 17.6875 -23.234375 C 18.019531 -22.554688 18.023438 -21.8125 17.703125 -21 L 17.734375 -20.578125 C 17.859375 -20.398438 17.921875 -20.234375 17.921875 -20.078125 C 17.921875 -19.929688 17.898438 -19.71875 17.859375 -19.4375 C 17.828125 -19.238281 17.804688 -19.019531 17.796875 -18.78125 C 17.785156 -18.539062 17.816406 -18.28125 17.890625 -18 L 18.15625 -17.703125 C 18.5625 -17.492188 18.953125 -17.390625 19.328125 -17.390625 C 19.835938 -17.390625 20.289062 -17.503906 20.6875 -17.734375 C 21.09375 -17.960938 21.472656 -18.191406 21.828125 -18.421875 C 22.109375 -18.617188 22.367188 -18.78125 22.609375 -18.90625 C 22.847656 -19.039062 23.082031 -19.128906 23.3125 -19.171875 C 23.84375 -19.679688 24.328125 -20.128906 24.765625 -20.515625 C 25.210938 -20.910156 25.675781 -21.3125 26.15625 -21.71875 C 27.0625 -22.445312 27.941406 -23.234375 28.796875 -24.078125 C 29.660156 -24.929688 30.347656 -25.988281 30.859375 -27.25 C 31.128906 -27.425781 31.441406 -27.515625 31.796875 -27.515625 C 32.148438 -27.515625 32.503906 -27.441406 32.859375 -27.296875 C 33.210938 -27.160156 33.566406 -27.003906 33.921875 -26.828125 C 33.992188 -26.785156 34.0625 -26.75 34.125 -26.71875 C 34.1875 -26.695312 34.257812 -26.660156 34.34375 -26.609375 C 34.34375 -26.328125 34.457031 -26.070312 34.6875 -25.84375 C 34.8125 -25.75 34.894531 -25.6875 34.9375 -25.65625 C 34.988281 -25.632812 35.039062 -25.609375 35.09375 -25.578125 C 35.300781 -25.453125 35.472656 -25.335938 35.609375 -25.234375 C 35.742188 -25.140625 35.851562 -25.003906 35.9375 -24.828125 C 36.15625 -24.140625 36.53125 -23.609375 37.0625 -23.234375 C 37.019531 -22.953125 37.035156 -22.675781 37.109375 -22.40625 C 37.179688 -22.144531 37.269531 -21.890625 37.375 -21.640625 C 37.425781 -21.535156 37.460938 -21.4375 37.484375 -21.34375 C 37.515625 -21.257812 37.550781 -21.15625 37.59375 -21.03125 L 36.765625 -21.109375 L 36.875 -20.28125 C 36.957031 -19.851562 36.925781 -19.375 36.78125 -18.84375 C 36.644531 -18.3125 36.488281 -17.894531 36.3125 -17.59375 C 36.363281 -16.832031 36.390625 -16.226562 36.390625 -15.78125 C 36.390625 -15.34375 36.363281 -14.929688 36.3125 -14.546875 C 36.257812 -14.171875 36.175781 -13.8125 36.0625 -13.46875 C 35.945312 -13.132812 35.800781 -12.773438 35.625 -12.390625 C 35.726562 -10.472656 35.507812 -8.71875 34.96875 -7.125 C 34.425781 -5.53125 33.835938 -4.039062 33.203125 -2.65625 C 33.128906 -2.476562 33.050781 -2.3125 32.96875 -2.15625 C 32.894531 -2.007812 32.832031 -1.859375 32.78125 -1.703125 C 32.507812 -1.628906 32.257812 -1.539062 32.03125 -1.4375 C 31.800781 -1.332031 31.585938 -1.21875 31.390625 -1.09375 C 31.109375 -0.914062 30.828125 -0.769531 30.546875 -0.65625 C 30.265625 -0.550781 29.972656 -0.5 29.671875 -0.5 C 28.460938 -1.375 27.835938 -2.898438 27.796875 -5.078125 C 27.765625 -7.253906 28.226562 -10.019531 29.1875 -13.375 C 29.363281 -13.5 29.4375 -13.691406 29.40625 -13.953125 L 29.40625 -14.359375 L 29.03125 -14.40625 C 28.90625 -14.40625 28.789062 -14.390625 28.6875 -14.359375 C 28.59375 -14.335938 28.519531 -14.226562 28.46875 -14.03125 C 27.65625 -13.445312 26.773438 -12.84375 25.828125 -12.21875 C 24.878906 -11.601562 23.898438 -11.035156 22.890625 -10.515625 C 21.878906 -9.992188 20.847656 -9.5625 19.796875 -9.21875 C 18.753906 -8.882812 17.738281 -8.71875 16.75 -8.71875 C 14.226562 -8.71875 12.320312 -10.003906 11.03125 -12.578125 L 10.6875 -13.265625 L 10.3125 -12.65625 C 10.238281 -12.53125 10.101562 -12.285156 9.90625 -11.921875 C 9.71875 -11.554688 9.53125 -11.132812 9.34375 -10.65625 C 9.15625 -10.175781 8.988281 -9.679688 8.84375 -9.171875 C 8.707031 -8.671875 8.664062 -8.226562 8.71875 -7.84375 C 8.414062 -7.5625 8.117188 -7.242188 7.828125 -6.890625 C 7.535156 -6.546875 7.328125 -6.144531 7.203125 -5.6875 C 7.148438 -5.5625 7.132812 -5.441406 7.15625 -5.328125 C 7.1875 -5.210938 7.226562 -5.09375 7.28125 -4.96875 C 7.25 -4.789062 7.195312 -4.660156 7.125 -4.578125 C 7.050781 -4.503906 6.960938 -4.429688 6.859375 -4.359375 C 6.734375 -4.234375 6.609375 -4.097656 6.484375 -3.953125 C 6.359375 -3.816406 6.242188 -3.660156 6.140625 -3.484375 C 6.085938 -3.335938 6.046875 -3.179688 6.015625 -3.015625 C 5.992188 -2.847656 5.972656 -2.703125 5.953125 -2.578125 C 5.953125 -2.296875 5.914062 -2.109375 5.84375 -2.015625 C 5.582031 -1.484375 5.359375 -1.046875 5.171875 -0.703125 C 4.984375 -0.359375 4.800781 -0.0976562 4.625 0.078125 C 4.445312 0.253906 4.265625 0.375 4.078125 0.4375 C 3.890625 0.5 3.664062 0.53125 3.40625 0.53125 Z M 3.40625 0.53125 "/></g></g></g><g fill="#0b3d2e" fill-opacity="1"><g transform="translate(109.06695, 55.227348)"><g><path d="M -0.984375 -3.59375 L -0.5 -3.984375 L -0.453125 -4.78125 C 0.179688 -6.320312 0.832031 -7.796875 1.5 -9.203125 C 2.164062 -10.617188 2.863281 -12.070312 3.59375 -13.5625 C 3.820312 -14.050781 4.054688 -14.535156 4.296875 -15.015625 C 4.535156 -15.492188 4.769531 -15.984375 5 -16.484375 C 4.976562 -16.585938 4.96875 -16.695312 4.96875 -16.8125 C 4.96875 -16.925781 4.992188 -17.054688 5.046875 -17.203125 C 5.398438 -17.710938 5.679688 -18.164062 5.890625 -18.5625 C 6.109375 -18.96875 6.316406 -19.390625 6.515625 -19.828125 C 6.742188 -20.328125 6.988281 -20.828125 7.25 -21.328125 C 7.519531 -21.835938 7.859375 -22.332031 8.265625 -22.8125 L 8.53125 -23.203125 L 8.9375 -23.15625 C 9.039062 -23.207031 9.148438 -23.25 9.265625 -23.28125 C 9.378906 -23.320312 9.523438 -23.34375 9.703125 -23.34375 L 10.390625 -23.234375 C 11.222656 -23.609375 11.957031 -24.15625 12.59375 -24.875 C 13.238281 -25.601562 13.894531 -26.472656 14.5625 -27.484375 L 15.015625 -28.125 L 15.609375 -27.75 C 15.742188 -27.664062 15.945312 -27.585938 16.21875 -27.515625 C 16.5 -27.441406 16.789062 -27.351562 17.09375 -27.25 C 17.625 -27.125 18.140625 -26.976562 18.640625 -26.8125 C 19.148438 -26.644531 19.546875 -26.425781 19.828125 -26.15625 L 20.015625 -25.8125 C 20.066406 -25.53125 20.109375 -25.273438 20.140625 -25.046875 C 20.179688 -24.828125 20.226562 -24.601562 20.28125 -24.375 C 20.375 -23.84375 20.457031 -23.316406 20.53125 -22.796875 C 20.613281 -22.273438 20.664062 -21.703125 20.6875 -21.078125 C 20.820312 -20.566406 20.941406 -20.050781 21.046875 -19.53125 C 21.160156 -19.019531 21.269531 -18.507812 21.375 -18 C 21.5 -17.269531 21.632812 -16.566406 21.78125 -15.890625 C 21.9375 -15.222656 22.144531 -14.585938 22.40625 -13.984375 C 22.65625 -13.984375 22.804688 -13.972656 22.859375 -13.953125 C 23.160156 -14.078125 23.515625 -14.148438 23.921875 -14.171875 L 24.40625 -14.21875 L 24.5625 -13.765625 C 24.613281 -13.679688 24.675781 -13.601562 24.75 -13.53125 C 24.820312 -13.457031 24.910156 -13.378906 25.015625 -13.296875 C 25.421875 -13.273438 25.71875 -13.191406 25.90625 -13.046875 C 26.09375 -12.910156 26.25 -12.78125 26.375 -12.65625 C 26.425781 -12.601562 26.488281 -12.546875 26.5625 -12.484375 C 26.644531 -12.421875 26.710938 -12.378906 26.765625 -12.359375 L 27.4375 -12.09375 L 27.0625 -11.375 C 26.78125 -10.84375 26.351562 -10.320312 25.78125 -9.8125 C 25.21875 -9.3125 24.582031 -8.894531 23.875 -8.5625 C 23.925781 -8.382812 23.957031 -8.21875 23.96875 -8.0625 C 23.988281 -7.914062 24.019531 -7.742188 24.0625 -7.546875 C 24.164062 -7.035156 24.25 -6.507812 24.3125 -5.96875 C 24.375 -5.425781 24.367188 -4.863281 24.296875 -4.28125 C 24.046875 -3.625 23.75 -3.035156 23.40625 -2.515625 C 23.0625 -2.003906 22.65625 -1.539062 22.1875 -1.125 C 21.71875 -0.707031 21.191406 -0.363281 20.609375 -0.09375 C 20.035156 0.164062 19.429688 0.3125 18.796875 0.34375 C 18.441406 0.269531 18.179688 0.179688 18.015625 0.078125 C 17.859375 -0.0234375 17.71875 -0.128906 17.59375 -0.234375 C 17.382812 -0.378906 17.21875 -0.476562 17.09375 -0.53125 L 16.59375 -0.765625 L 16.75 -1.328125 C 16.820312 -1.523438 16.8125 -1.695312 16.71875 -1.84375 C 16.632812 -2 16.457031 -2.207031 16.1875 -2.46875 C 16.082031 -2.539062 15.992188 -2.617188 15.921875 -2.703125 C 15.847656 -2.796875 15.757812 -2.894531 15.65625 -3 L 14.890625 -3.859375 L 16.140625 -4.203125 C 16.898438 -4.410156 17.40625 -4.671875 17.65625 -4.984375 C 17.914062 -5.296875 18.019531 -5.859375 17.96875 -6.671875 C 17.332031 -6.796875 16.8125 -6.8125 16.40625 -6.71875 C 16.007812 -6.632812 15.609375 -6.539062 15.203125 -6.4375 C 14.617188 -6.289062 14.046875 -6.160156 13.484375 -6.046875 C 12.929688 -5.929688 12.328125 -5.875 11.671875 -5.875 C 11.242188 -5.875 10.789062 -5.910156 10.3125 -5.984375 L 9.890625 -6.03125 L 9.78125 -6.4375 C 9.78125 -6.488281 9.75 -6.546875 9.6875 -6.609375 C 9.625 -6.671875 9.566406 -6.726562 9.515625 -6.78125 C 9.390625 -6.9375 9.238281 -7.140625 9.0625 -7.390625 C 8.882812 -7.640625 8.84375 -7.957031 8.9375 -8.34375 C 8.769531 -8.613281 8.671875 -8.898438 8.640625 -9.203125 C 8.535156 -9.003906 8.453125 -8.8125 8.390625 -8.625 C 8.328125 -8.4375 8.269531 -8.253906 8.21875 -8.078125 L 8.078125 -7.578125 L 7.578125 -7.5 C 7.523438 -7.445312 7.476562 -7.367188 7.4375 -7.265625 C 7.40625 -7.171875 7.398438 -7.097656 7.421875 -7.046875 L 7.578125 -6.640625 L 7.203125 -6.296875 C 7.148438 -6.210938 7.082031 -6.144531 7 -6.09375 C 6.925781 -6.050781 6.867188 -6.003906 6.828125 -5.953125 C 6.773438 -5.671875 6.703125 -5.40625 6.609375 -5.15625 C 6.523438 -4.90625 6.429688 -4.648438 6.328125 -4.390625 C 6.203125 -3.992188 6.082031 -3.601562 5.96875 -3.21875 C 5.851562 -2.84375 5.796875 -2.460938 5.796875 -2.078125 L 5.640625 -1.59375 C 5.515625 -1.382812 5.359375 -1.226562 5.171875 -1.125 C 4.984375 -1.03125 4.800781 -0.945312 4.625 -0.875 C 4.375 -0.769531 4.195312 -0.664062 4.09375 -0.5625 L 3.984375 -0.078125 L 3.40625 0 C 3.082031 0.0703125 2.847656 0.117188 2.703125 0.140625 C 2.566406 0.171875 2.410156 0.1875 2.234375 0.1875 L 1.75 0.15625 C 1.4375 -0.144531 1.1875 -0.378906 1 -0.546875 C 0.8125 -0.710938 0.59375 -0.859375 0.34375 -0.984375 L 0.109375 -1.28125 C 0.015625 -1.488281 -0.0390625 -1.671875 -0.0625 -1.828125 C -0.09375 -1.992188 -0.132812 -2.164062 -0.1875 -2.34375 C -0.238281 -2.675781 -0.316406 -2.90625 -0.421875 -3.03125 Z M 11.109375 -13.453125 C 10.753906 -12.953125 10.410156 -12.421875 10.078125 -11.859375 C 10.253906 -11.890625 10.425781 -11.90625 10.59375 -11.90625 C 10.757812 -11.90625 10.929688 -11.914062 11.109375 -11.9375 C 11.992188 -11.988281 12.8125 -12.050781 13.5625 -12.125 C 14.320312 -12.207031 15.144531 -12.335938 16.03125 -12.515625 C 15.832031 -13.441406 15.613281 -14.390625 15.375 -15.359375 C 15.132812 -16.335938 14.875 -17.320312 14.59375 -18.3125 L 14.40625 -17.921875 C 13.769531 -17.242188 13.160156 -16.515625 12.578125 -15.734375 C 12.003906 -14.953125 11.523438 -14.207031 11.140625 -13.5 Z M 11.109375 -13.453125 "/></g></g></g><g fill="#0b3d2e" fill-opacity="1"><g transform="translate(136.312678, 55.227348)"><g><path d="M 6.859375 -3.5625 C 6.609375 -3.363281 6.457031 -3.101562 6.40625 -2.78125 C 6.351562 -2.46875 6.289062 -2.160156 6.21875 -1.859375 C 6.144531 -1.554688 6.007812 -1.296875 5.8125 -1.078125 C 5.625 -0.867188 5.289062 -0.773438 4.8125 -0.796875 C 4.707031 -0.671875 4.6875 -0.59375 4.75 -0.5625 C 4.820312 -0.539062 4.878906 -0.429688 4.921875 -0.234375 C 4.566406 -0.273438 4.3125 -0.242188 4.15625 -0.140625 C 4.007812 -0.046875 3.820312 0.0234375 3.59375 0.078125 C 3.019531 -0.0976562 2.535156 -0.421875 2.140625 -0.890625 C 1.742188 -1.359375 1.398438 -1.867188 1.109375 -2.421875 C 0.828125 -2.984375 0.578125 -3.550781 0.359375 -4.125 C 0.140625 -4.707031 -0.078125 -5.210938 -0.296875 -5.640625 C -0.296875 -5.742188 -0.25 -5.789062 -0.15625 -5.78125 C -0.0703125 -5.769531 0.00390625 -5.765625 0.078125 -5.765625 C -0.046875 -6.015625 -0.140625 -6.296875 -0.203125 -6.609375 C -0.265625 -6.929688 -0.382812 -7.191406 -0.5625 -7.390625 C 0.164062 -8.953125 0.945312 -10.585938 1.78125 -12.296875 C 2.613281 -14.003906 3.453125 -15.734375 4.296875 -17.484375 C 5.148438 -19.242188 6 -21.015625 6.84375 -22.796875 C 7.6875 -24.578125 8.5 -26.328125 9.28125 -28.046875 C 9.988281 -27.796875 10.675781 -27.5 11.34375 -27.15625 C 12.019531 -26.8125 12.632812 -26.410156 13.1875 -25.953125 C 13.75 -25.503906 14.222656 -24.984375 14.609375 -24.390625 C 15.003906 -23.796875 15.265625 -23.117188 15.390625 -22.359375 C 15.335938 -22.210938 15.269531 -22.160156 15.1875 -22.203125 C 15.113281 -22.253906 15.054688 -22.234375 15.015625 -22.140625 C 15.140625 -21.984375 15.207031 -21.875 15.21875 -21.8125 C 15.226562 -21.75 15.21875 -21.6875 15.1875 -21.625 C 15.164062 -21.5625 15.15625 -21.476562 15.15625 -21.375 C 15.15625 -21.269531 15.21875 -21.128906 15.34375 -20.953125 C 15.21875 -20.984375 15.128906 -20.96875 15.078125 -20.90625 C 15.035156 -20.84375 14.945312 -20.835938 14.8125 -20.890625 C 14.945312 -20.535156 14.988281 -20.253906 14.9375 -20.046875 C 14.882812 -19.847656 14.804688 -19.664062 14.703125 -19.5 C 14.609375 -19.332031 14.523438 -19.15625 14.453125 -18.96875 C 14.390625 -18.78125 14.410156 -18.519531 14.515625 -18.1875 C 14.410156 -18.1875 14.335938 -18.164062 14.296875 -18.125 C 14.265625 -18.09375 14.234375 -18.050781 14.203125 -18 C 14.179688 -17.945312 14.148438 -17.898438 14.109375 -17.859375 C 14.078125 -17.828125 14.007812 -17.828125 13.90625 -17.859375 C 13.988281 -17.191406 14.015625 -16.523438 13.984375 -15.859375 C 13.960938 -15.191406 13.9375 -14.507812 13.90625 -13.8125 C 13.882812 -13.113281 13.882812 -12.398438 13.90625 -11.671875 C 13.9375 -10.941406 14.039062 -10.1875 14.21875 -9.40625 C 15.300781 -10.03125 16.175781 -10.847656 16.84375 -11.859375 C 17.519531 -12.867188 18.050781 -13.992188 18.4375 -15.234375 C 18.832031 -16.472656 19.132812 -17.800781 19.34375 -19.21875 C 19.5625 -20.632812 19.785156 -22.070312 20.015625 -23.53125 C 20.285156 -23.8125 20.503906 -24.15625 20.671875 -24.5625 C 20.835938 -24.96875 20.976562 -25.382812 21.09375 -25.8125 C 21.207031 -26.238281 21.320312 -26.671875 21.4375 -27.109375 C 21.550781 -27.554688 21.707031 -27.957031 21.90625 -28.3125 C 22.363281 -28.257812 22.75 -28.125 23.0625 -27.90625 C 23.375 -27.695312 23.671875 -27.457031 23.953125 -27.1875 C 24.234375 -26.925781 24.523438 -26.679688 24.828125 -26.453125 C 25.128906 -26.222656 25.507812 -26.070312 25.96875 -26 C 26.320312 -25.5 26.648438 -25.015625 26.953125 -24.546875 C 27.253906 -24.078125 27.457031 -23.550781 27.5625 -22.96875 C 27.40625 -22.71875 27.285156 -22.441406 27.203125 -22.140625 C 27.128906 -21.835938 27.046875 -21.53125 26.953125 -21.21875 C 26.867188 -20.914062 26.75 -20.640625 26.59375 -20.390625 C 26.445312 -20.140625 26.238281 -19.925781 25.96875 -19.75 C 25.882812 -18.988281 25.765625 -18.28125 25.609375 -17.625 C 25.460938 -16.96875 25.328125 -16.320312 25.203125 -15.6875 C 25.078125 -15.0625 24.960938 -14.40625 24.859375 -13.71875 C 24.765625 -13.039062 24.726562 -12.296875 24.75 -11.484375 C 24.519531 -10.753906 24.265625 -10.003906 23.984375 -9.234375 C 23.710938 -8.460938 23.515625 -7.75 23.390625 -7.09375 C 22.910156 -6.707031 22.53125 -6.238281 22.25 -5.6875 C 21.96875 -5.132812 21.675781 -4.578125 21.375 -4.015625 C 21.25 -3.910156 21.171875 -3.890625 21.140625 -3.953125 C 21.117188 -4.023438 21.007812 -4.070312 20.8125 -4.09375 C 20.832031 -3.863281 20.785156 -3.71875 20.671875 -3.65625 C 20.554688 -3.59375 20.5625 -3.410156 20.6875 -3.109375 C 20.257812 -2.910156 19.878906 -2.644531 19.546875 -2.3125 C 19.222656 -1.976562 18.863281 -1.671875 18.46875 -1.390625 C 18.082031 -1.117188 17.628906 -0.9375 17.109375 -0.84375 C 16.597656 -0.757812 15.921875 -0.867188 15.078125 -1.171875 C 13.847656 -2.085938 12.738281 -3.140625 11.75 -4.328125 C 10.757812 -5.515625 9.976562 -6.914062 9.40625 -8.53125 C 9.144531 -8.457031 8.953125 -8.289062 8.828125 -8.03125 C 8.703125 -7.78125 8.585938 -7.515625 8.484375 -7.234375 C 8.390625 -6.960938 8.289062 -6.710938 8.1875 -6.484375 C 8.082031 -6.253906 7.929688 -6.140625 7.734375 -6.140625 C 7.679688 -5.910156 7.582031 -5.703125 7.4375 -5.515625 C 7.300781 -5.328125 7.171875 -5.132812 7.046875 -4.9375 C 6.921875 -4.75 6.828125 -4.539062 6.765625 -4.3125 C 6.703125 -4.09375 6.734375 -3.84375 6.859375 -3.5625 Z M 6.859375 -3.5625 "/></g></g></g><g fill="#0b3d2e" fill-opacity="1"><g transform="translate(162.876315, 55.227348)"><g><path d="M 0.640625 0.453125 C 0.285156 0.222656 0.00390625 -0.0664062 -0.203125 -0.421875 C -0.421875 -0.773438 -0.597656 -1.148438 -0.734375 -1.546875 C -0.878906 -1.953125 -0.992188 -2.375 -1.078125 -2.8125 C -1.171875 -3.257812 -1.265625 -3.6875 -1.359375 -4.09375 C -1.359375 -4.445312 -1.28125 -4.703125 -1.125 -4.859375 C -0.976562 -5.023438 -0.816406 -5.1875 -0.640625 -5.34375 C -0.0351562 -5.363281 0.503906 -5.410156 0.984375 -5.484375 C 1.460938 -5.566406 1.925781 -5.644531 2.375 -5.71875 C 2.832031 -5.800781 3.289062 -5.875 3.75 -5.9375 C 4.207031 -6 4.703125 -6.03125 5.234375 -6.03125 C 5.609375 -6.8125 5.957031 -7.5625 6.28125 -8.28125 C 6.613281 -9 6.929688 -9.6875 7.234375 -10.34375 C 7.390625 -10.976562 7.585938 -11.566406 7.828125 -12.109375 C 8.066406 -12.648438 8.300781 -13.164062 8.53125 -13.65625 C 8.757812 -14.15625 8.960938 -14.648438 9.140625 -15.140625 C 9.316406 -15.628906 9.425781 -16.15625 9.46875 -16.71875 C 9.78125 -17.601562 10.054688 -18.414062 10.296875 -19.15625 C 10.535156 -19.90625 10.71875 -20.796875 10.84375 -21.828125 C 9.882812 -21.679688 9.113281 -21.535156 8.53125 -21.390625 C 7.945312 -21.253906 7.53125 -21.125 7.28125 -21 C 6.769531 -21.019531 6.367188 -21.117188 6.078125 -21.296875 C 5.785156 -21.472656 5.550781 -21.6875 5.375 -21.9375 C 5.195312 -22.195312 5.046875 -22.488281 4.921875 -22.8125 C 4.796875 -23.144531 4.644531 -23.488281 4.46875 -23.84375 C 4.570312 -24.070312 4.597656 -24.40625 4.546875 -24.84375 C 4.492188 -25.289062 4.34375 -25.613281 4.09375 -25.8125 C 4.289062 -25.863281 4.441406 -26.035156 4.546875 -26.328125 C 4.648438 -26.617188 4.664062 -26.835938 4.59375 -26.984375 C 5.019531 -27.109375 5.472656 -27.191406 5.953125 -27.234375 C 6.429688 -27.273438 6.90625 -27.3125 7.375 -27.34375 C 7.84375 -27.382812 8.289062 -27.4375 8.71875 -27.5 C 9.144531 -27.5625 9.507812 -27.691406 9.8125 -27.890625 C 11.125 -27.941406 12.492188 -27.992188 13.921875 -28.046875 C 15.359375 -28.097656 16.679688 -28.160156 17.890625 -28.234375 C 18.347656 -28.085938 18.875 -28.015625 19.46875 -28.015625 C 20.0625 -28.015625 20.65625 -27.972656 21.25 -27.890625 C 21.84375 -27.816406 22.367188 -27.65625 22.828125 -27.40625 C 23.296875 -27.15625 23.617188 -26.710938 23.796875 -26.078125 C 24.179688 -26.023438 24.46875 -25.921875 24.65625 -25.765625 C 24.84375 -25.617188 24.960938 -25.4375 25.015625 -25.21875 C 25.066406 -25.007812 25.082031 -24.769531 25.0625 -24.5 C 25.050781 -24.238281 25.046875 -23.984375 25.046875 -23.734375 C 24.648438 -23.421875 24.140625 -23.171875 23.515625 -22.984375 C 22.898438 -22.796875 22.222656 -22.644531 21.484375 -22.53125 C 20.753906 -22.414062 19.988281 -22.335938 19.1875 -22.296875 C 18.394531 -22.265625 17.617188 -22.238281 16.859375 -22.21875 C 16.734375 -21.375 16.515625 -20.390625 16.203125 -19.265625 C 15.890625 -18.148438 15.566406 -17.050781 15.234375 -15.96875 C 14.910156 -14.894531 14.628906 -13.9375 14.390625 -13.09375 C 14.148438 -12.25 14.039062 -11.703125 14.0625 -11.453125 C 13.8125 -10.867188 13.601562 -10.375 13.4375 -9.96875 C 13.269531 -9.5625 13.113281 -9.179688 12.96875 -8.828125 C 12.832031 -8.472656 12.695312 -8.125 12.5625 -7.78125 C 12.425781 -7.445312 12.253906 -7.066406 12.046875 -6.640625 L 14.625 -6.640625 C 14.675781 -6.359375 14.789062 -6.164062 14.96875 -6.0625 C 15.144531 -5.957031 15.332031 -5.867188 15.53125 -5.796875 C 15.738281 -5.722656 15.925781 -5.628906 16.09375 -5.515625 C 16.257812 -5.398438 16.34375 -5.21875 16.34375 -4.96875 C 16.820312 -4.84375 17.125 -4.648438 17.25 -4.390625 C 17.375 -4.140625 17.40625 -3.867188 17.34375 -3.578125 C 17.28125 -3.285156 17.148438 -2.988281 16.953125 -2.6875 C 16.765625 -2.382812 16.582031 -2.117188 16.40625 -1.890625 C 16.1875 -1.941406 15.972656 -1.882812 15.765625 -1.71875 C 15.566406 -1.5625 15.378906 -1.378906 15.203125 -1.171875 C 14.460938 -1.273438 13.738281 -1.285156 13.03125 -1.203125 C 12.332031 -1.128906 11.675781 -1.066406 11.0625 -1.015625 C 10.9375 -0.992188 10.882812 -0.925781 10.90625 -0.8125 C 10.9375 -0.695312 10.914062 -0.613281 10.84375 -0.5625 C 10.0625 -0.820312 9.257812 -0.925781 8.4375 -0.875 C 7.613281 -0.820312 6.773438 -0.703125 5.921875 -0.515625 C 5.078125 -0.328125 4.210938 -0.125 3.328125 0.09375 C 2.453125 0.3125 1.554688 0.429688 0.640625 0.453125 Z M 0.640625 0.453125 "/></g></g></g><g fill="#0b3d2e" fill-opacity="1"><g transform="translate(182.884304, 55.227348)"><g><path d="M 3.40625 0.53125 C 3.15625 0.53125 2.765625 0.492188 2.234375 0.421875 C 1.828125 -0.015625 1.46875 -0.601562 1.15625 -1.34375 C 0.84375 -2.09375 0.601562 -2.890625 0.4375 -3.734375 C 0.269531 -4.578125 0.191406 -5.421875 0.203125 -6.265625 C 0.222656 -7.117188 0.367188 -7.875 0.640625 -8.53125 C 0.640625 -8.550781 0.757812 -8.851562 1 -9.4375 C 1.238281 -10.019531 1.546875 -10.757812 1.921875 -11.65625 C 2.304688 -12.550781 2.738281 -13.546875 3.21875 -14.640625 C 3.695312 -15.742188 4.175781 -16.828125 4.65625 -17.890625 C 5.132812 -18.953125 5.59375 -19.914062 6.03125 -20.78125 C 6.476562 -21.65625 6.867188 -22.332031 7.203125 -22.8125 C 7.429688 -23.164062 7.640625 -23.503906 7.828125 -23.828125 C 8.015625 -24.160156 8.195312 -24.46875 8.375 -24.75 C 8.65625 -25.207031 8.914062 -25.628906 9.15625 -26.015625 C 9.394531 -26.410156 9.660156 -26.765625 9.953125 -27.078125 C 10.242188 -27.398438 10.566406 -27.679688 10.921875 -27.921875 C 11.273438 -28.160156 11.703125 -28.367188 12.203125 -28.546875 C 12.503906 -28.410156 12.769531 -28.273438 13 -28.140625 C 13.226562 -28.003906 13.429688 -27.832031 13.609375 -27.625 L 13.71875 -27.09375 C 13.769531 -26.914062 13.851562 -26.796875 13.96875 -26.734375 C 14.082031 -26.671875 14.175781 -26.640625 14.25 -26.640625 C 14.582031 -26.566406 14.867188 -26.484375 15.109375 -26.390625 C 15.347656 -26.304688 15.601562 -26.253906 15.875 -26.234375 C 15.976562 -26.078125 16.070312 -25.921875 16.15625 -25.765625 C 16.25 -25.617188 16.347656 -25.484375 16.453125 -25.359375 C 16.953125 -24.628906 17.363281 -23.921875 17.6875 -23.234375 C 18.019531 -22.554688 18.023438 -21.8125 17.703125 -21 L 17.734375 -20.578125 C 17.859375 -20.398438 17.921875 -20.234375 17.921875 -20.078125 C 17.921875 -19.929688 17.898438 -19.71875 17.859375 -19.4375 C 17.828125 -19.238281 17.804688 -19.019531 17.796875 -18.78125 C 17.785156 -18.539062 17.816406 -18.28125 17.890625 -18 L 18.15625 -17.703125 C 18.5625 -17.492188 18.953125 -17.390625 19.328125 -17.390625 C 19.835938 -17.390625 20.289062 -17.503906 20.6875 -17.734375 C 21.09375 -17.960938 21.472656 -18.191406 21.828125 -18.421875 C 22.109375 -18.617188 22.367188 -18.78125 22.609375 -18.90625 C 22.847656 -19.039062 23.082031 -19.128906 23.3125 -19.171875 C 23.84375 -19.679688 24.328125 -20.128906 24.765625 -20.515625 C 25.210938 -20.910156 25.675781 -21.3125 26.15625 -21.71875 C 27.0625 -22.445312 27.941406 -23.234375 28.796875 -24.078125 C 29.660156 -24.929688 30.347656 -25.988281 30.859375 -27.25 C 31.128906 -27.425781 31.441406 -27.515625 31.796875 -27.515625 C 32.148438 -27.515625 32.503906 -27.441406 32.859375 -27.296875 C 33.210938 -27.160156 33.566406 -27.003906 33.921875 -26.828125 C 33.992188 -26.785156 34.0625 -26.75 34.125 -26.71875 C 34.1875 -26.695312 34.257812 -26.660156 34.34375 -26.609375 C 34.34375 -26.328125 34.457031 -26.070312 34.6875 -25.84375 C 34.8125 -25.75 34.894531 -25.6875 34.9375 -25.65625 C 34.988281 -25.632812 35.039062 -25.609375 35.09375 -25.578125 C 35.300781 -25.453125 35.472656 -25.335938 35.609375 -25.234375 C 35.742188 -25.140625 35.851562 -25.003906 35.9375 -24.828125 C 36.15625 -24.140625 36.53125 -23.609375 37.0625 -23.234375 C 37.019531 -22.953125 37.035156 -22.675781 37.109375 -22.40625 C 37.179688 -22.144531 37.269531 -21.890625 37.375 -21.640625 C 37.425781 -21.535156 37.460938 -21.4375 37.484375 -21.34375 C 37.515625 -21.257812 37.550781 -21.15625 37.59375 -21.03125 L 36.765625 -21.109375 L 36.875 -20.28125 C 36.957031 -19.851562 36.925781 -19.375 36.78125 -18.84375 C 36.644531 -18.3125 36.488281 -17.894531 36.3125 -17.59375 C 36.363281 -16.832031 36.390625 -16.226562 36.390625 -15.78125 C 36.390625 -15.34375 36.363281 -14.929688 36.3125 -14.546875 C 36.257812 -14.171875 36.175781 -13.8125 36.0625 -13.46875 C 35.945312 -13.132812 35.800781 -12.773438 35.625 -12.390625 C 35.726562 -10.472656 35.507812 -8.71875 34.96875 -7.125 C 34.425781 -5.53125 33.835938 -4.039062 33.203125 -2.65625 C 33.128906 -2.476562 33.050781 -2.3125 32.96875 -2.15625 C 32.894531 -2.007812 32.832031 -1.859375 32.78125 -1.703125 C 32.507812 -1.628906 32.257812 -1.539062 32.03125 -1.4375 C 31.800781 -1.332031 31.585938 -1.21875 31.390625 -1.09375 C 31.109375 -0.914062 30.828125 -0.769531 30.546875 -0.65625 C 30.265625 -0.550781 29.972656 -0.5 29.671875 -0.5 C 28.460938 -1.375 27.835938 -2.898438 27.796875 -5.078125 C 27.765625 -7.253906 28.226562 -10.019531 29.1875 -13.375 C 29.363281 -13.5 29.4375 -13.691406 29.40625 -13.953125 L 29.40625 -14.359375 L 29.03125 -14.40625 C 28.90625 -14.40625 28.789062 -14.390625 28.6875 -14.359375 C 28.59375 -14.335938 28.519531 -14.226562 28.46875 -14.03125 C 27.65625 -13.445312 26.773438 -12.84375 25.828125 -12.21875 C 24.878906 -11.601562 23.898438 -11.035156 22.890625 -10.515625 C 21.878906 -9.992188 20.847656 -9.5625 19.796875 -9.21875 C 18.753906 -8.882812 17.738281 -8.71875 16.75 -8.71875 C 14.226562 -8.71875 12.320312 -10.003906 11.03125 -12.578125 L 10.6875 -13.265625 L 10.3125 -12.65625 C 10.238281 -12.53125 10.101562 -12.285156 9.90625 -11.921875 C 9.71875 -11.554688 9.53125 -11.132812 9.34375 -10.65625 C 9.15625 -10.175781 8.988281 -9.679688 8.84375 -9.171875 C 8.707031 -8.671875 8.664062 -8.226562 8.71875 -7.84375 C 8.414062 -7.5625 8.117188 -7.242188 7.828125 -6.890625 C 7.535156 -6.546875 7.328125 -6.144531 7.203125 -5.6875 C 7.148438 -5.5625 7.132812 -5.441406 7.15625 -5.328125 C 7.1875 -5.210938 7.226562 -5.09375 7.28125 -4.96875 C 7.25 -4.789062 7.195312 -4.660156 7.125 -4.578125 C 7.050781 -4.503906 6.960938 -4.429688 6.859375 -4.359375 C 6.734375 -4.234375 6.609375 -4.097656 6.484375 -3.953125 C 6.359375 -3.816406 6.242188 -3.660156 6.140625 -3.484375 C 6.085938 -3.335938 6.046875 -3.179688 6.015625 -3.015625 C 5.992188 -2.847656 5.972656 -2.703125 5.953125 -2.578125 C 5.953125 -2.296875 5.914062 -2.109375 5.84375 -2.015625 C 5.582031 -1.484375 5.359375 -1.046875 5.171875 -0.703125 C 4.984375 -0.359375 4.800781 -0.0976562 4.625 0.078125 C 4.445312 0.253906 4.265625 0.375 4.078125 0.4375 C 3.890625 0.5 3.664062 0.53125 3.40625 0.53125 Z M 3.40625 0.53125 "/></g></g></g><g fill="#0b3d2e" fill-opacity="1"><g transform="translate(220.66454, 55.227348)"><g><path d="M -0.984375 -3.59375 L -0.5 -3.984375 L -0.453125 -4.78125 C 0.179688 -6.320312 0.832031 -7.796875 1.5 -9.203125 C 2.164062 -10.617188 2.863281 -12.070312 3.59375 -13.5625 C 3.820312 -14.050781 4.054688 -14.535156 4.296875 -15.015625 C 4.535156 -15.492188 4.769531 -15.984375 5 -16.484375 C 4.976562 -16.585938 4.96875 -16.695312 4.96875 -16.8125 C 4.96875 -16.925781 4.992188 -17.054688 5.046875 -17.203125 C 5.398438 -17.710938 5.679688 -18.164062 5.890625 -18.5625 C 6.109375 -18.96875 6.316406 -19.390625 6.515625 -19.828125 C 6.742188 -20.328125 6.988281 -20.828125 7.25 -21.328125 C 7.519531 -21.835938 7.859375 -22.332031 8.265625 -22.8125 L 8.53125 -23.203125 L 8.9375 -23.15625 C 9.039062 -23.207031 9.148438 -23.25 9.265625 -23.28125 C 9.378906 -23.320312 9.523438 -23.34375 9.703125 -23.34375 L 10.390625 -23.234375 C 11.222656 -23.609375 11.957031 -24.15625 12.59375 -24.875 C 13.238281 -25.601562 13.894531 -26.472656 14.5625 -27.484375 L 15.015625 -28.125 L 15.609375 -27.75 C 15.742188 -27.664062 15.945312 -27.585938 16.21875 -27.515625 C 16.5 -27.441406 16.789062 -27.351562 17.09375 -27.25 C 17.625 -27.125 18.140625 -26.976562 18.640625 -26.8125 C 19.148438 -26.644531 19.546875 -26.425781 19.828125 -26.15625 L 20.015625 -25.8125 C 20.066406 -25.53125 20.109375 -25.273438 20.140625 -25.046875 C 20.179688 -24.828125 20.226562 -24.601562 20.28125 -24.375 C 20.375 -23.84375 20.457031 -23.316406 20.53125 -22.796875 C 20.613281 -22.273438 20.664062 -21.703125 20.6875 -21.078125 C 20.820312 -20.566406 20.941406 -20.050781 21.046875 -19.53125 C 21.160156 -19.019531 21.269531 -18.507812 21.375 -18 C 21.5 -17.269531 21.632812 -16.566406 21.78125 -15.890625 C 21.9375 -15.222656 22.144531 -14.585938 22.40625 -13.984375 C 22.65625 -13.984375 22.804688 -13.972656 22.859375 -13.953125 C 23.160156 -14.078125 23.515625 -14.148438 23.921875 -14.171875 L 24.40625 -14.21875 L 24.5625 -13.765625 C 24.613281 -13.679688 24.675781 -13.601562 24.75 -13.53125 C 24.820312 -13.457031 24.910156 -13.378906 25.015625 -13.296875 C 25.421875 -13.273438 25.71875 -13.191406 25.90625 -13.046875 C 26.09375 -12.910156 26.25 -12.78125 26.375 -12.65625 C 26.425781 -12.601562 26.488281 -12.546875 26.5625 -12.484375 C 26.644531 -12.421875 26.710938 -12.378906 26.765625 -12.359375 L 27.4375 -12.09375 L 27.0625 -11.375 C 26.78125 -10.84375 26.351562 -10.320312 25.78125 -9.8125 C 25.21875 -9.3125 24.582031 -8.894531 23.875 -8.5625 C 23.925781 -8.382812 23.957031 -8.21875 23.96875 -8.0625 C 23.988281 -7.914062 24.019531 -7.742188 24.0625 -7.546875 C 24.164062 -7.035156 24.25 -6.507812 24.3125 -5.96875 C 24.375 -5.425781 24.367188 -4.863281 24.296875 -4.28125 C 24.046875 -3.625 23.75 -3.035156 23.40625 -2.515625 C 23.0625 -2.003906 22.65625 -1.539062 22.1875 -1.125 C 21.71875 -0.707031 21.191406 -0.363281 20.609375 -0.09375 C 20.035156 0.164062 19.429688 0.3125 18.796875 0.34375 C 18.441406 0.269531 18.179688 0.179688 18.015625 0.078125 C 17.859375 -0.0234375 17.71875 -0.128906 17.59375 -0.234375 C 17.382812 -0.378906 17.21875 -0.476562 17.09375 -0.53125 L 16.59375 -0.765625 L 16.75 -1.328125 C 16.820312 -1.523438 16.8125 -1.695312 16.71875 -1.84375 C 16.632812 -2 16.457031 -2.207031 16.1875 -2.46875 C 16.082031 -2.539062 15.992188 -2.617188 15.921875 -2.703125 C 15.847656 -2.796875 15.757812 -2.894531 15.65625 -3 L 14.890625 -3.859375 L 16.140625 -4.203125 C 16.898438 -4.410156 17.40625 -4.671875 17.65625 -4.984375 C 17.914062 -5.296875 18.019531 -5.859375 17.96875 -6.671875 C 17.332031 -6.796875 16.8125 -6.8125 16.40625 -6.71875 C 16.007812 -6.632812 15.609375 -6.539062 15.203125 -6.4375 C 14.617188 -6.289062 14.046875 -6.160156 13.484375 -6.046875 C 12.929688 -5.929688 12.328125 -5.875 11.671875 -5.875 C 11.242188 -5.875 10.789062 -5.910156 10.3125 -5.984375 L 9.890625 -6.03125 L 9.78125 -6.4375 C 9.78125 -6.488281 9.75 -6.546875 9.6875 -6.609375 C 9.625 -6.671875 9.566406 -6.726562 9.515625 -6.78125 C 9.390625 -6.9375 9.238281 -7.140625 9.0625 -7.390625 C 8.882812 -7.640625 8.84375 -7.957031 8.9375 -8.34375 C 8.769531 -8.613281 8.671875 -8.898438 8.640625 -9.203125 C 8.535156 -9.003906 8.453125 -8.8125 8.390625 -8.625 C 8.328125 -8.4375 8.269531 -8.253906 8.21875 -8.078125 L 8.078125 -7.578125 L 7.578125 -7.5 C 7.523438 -7.445312 7.476562 -7.367188 7.4375 -7.265625 C 7.40625 -7.171875 7.398438 -7.097656 7.421875 -7.046875 L 7.578125 -6.640625 L 7.203125 -6.296875 C 7.148438 -6.210938 7.082031 -6.144531 7 -6.09375 C 6.925781 -6.050781 6.867188 -6.003906 6.828125 -5.953125 C 6.773438 -5.671875 6.703125 -5.40625 6.609375 -5.15625 C 6.523438 -4.90625 6.429688 -4.648438 6.328125 -4.390625 C 6.203125 -3.992188 6.082031 -3.601562 5.96875 -3.21875 C 5.851562 -2.84375 5.796875 -2.460938 5.796875 -2.078125 L 5.640625 -1.59375 C 5.515625 -1.382812 5.359375 -1.226562 5.171875 -1.125 C 4.984375 -1.03125 4.800781 -0.945312 4.625 -0.875 C 4.375 -0.769531 4.195312 -0.664062 4.09375 -0.5625 L 3.984375 -0.078125 L 3.40625 0 C 3.082031 0.0703125 2.847656 0.117188 2.703125 0.140625 C 2.566406 0.171875 2.410156 0.1875 2.234375 0.1875 L 1.75 0.15625 C 1.4375 -0.144531 1.1875 -0.378906 1 -0.546875 C 0.8125 -0.710938 0.59375 -0.859375 0.34375 -0.984375 L 0.109375 -1.28125 C 0.015625 -1.488281 -0.0390625 -1.671875 -0.0625 -1.828125 C -0.09375 -1.992188 -0.132812 -2.164062 -0.1875 -2.34375 C -0.238281 -2.675781 -0.316406 -2.90625 -0.421875 -3.03125 Z M 11.109375 -13.453125 C 10.753906 -12.953125 10.410156 -12.421875 10.078125 -11.859375 C 10.253906 -11.890625 10.425781 -11.90625 10.59375 -11.90625 C 10.757812 -11.90625 10.929688 -11.914062 11.109375 -11.9375 C 11.992188 -11.988281 12.8125 -12.050781 13.5625 -12.125 C 14.320312 -12.207031 15.144531 -12.335938 16.03125 -12.515625 C 15.832031 -13.441406 15.613281 -14.390625 15.375 -15.359375 C 15.132812 -16.335938 14.875 -17.320312 14.59375 -18.3125 L 14.40625 -17.921875 C 13.769531 -17.242188 13.160156 -16.515625 12.578125 -15.734375 C 12.003906 -14.953125 11.523438 -14.207031 11.140625 -13.5 Z M 11.109375 -13.453125 "/></g></g></g><g fill="#0b3d2e" fill-opacity="1"><g transform="translate(247.910256, 55.227348)"><g><path d="M 2.15625 -1.40625 C 2.0625 -1.5 1.972656 -1.613281 1.890625 -1.75 C 1.816406 -1.894531 1.753906 -2.082031 1.703125 -2.3125 C 1.347656 -2.738281 1.066406 -3.226562 0.859375 -3.78125 C 0.660156 -4.34375 0.523438 -4.921875 0.453125 -5.515625 C 0.378906 -6.109375 0.367188 -6.707031 0.421875 -7.3125 C 0.472656 -7.914062 0.5625 -8.484375 0.6875 -9.015625 C 0.757812 -9.273438 0.820312 -9.539062 0.875 -9.8125 C 1 -10.289062 1.125 -10.765625 1.25 -11.234375 C 1.375 -11.703125 1.5625 -12.085938 1.8125 -12.390625 C 1.71875 -12.671875 1.734375 -12.972656 1.859375 -13.296875 C 1.984375 -13.628906 2.109375 -13.9375 2.234375 -14.21875 C 2.285156 -14.289062 2.320312 -14.359375 2.34375 -14.421875 C 2.375 -14.484375 2.398438 -14.539062 2.421875 -14.59375 C 2.722656 -15.476562 3.019531 -16.332031 3.3125 -17.15625 C 3.601562 -17.976562 3.890625 -18.765625 4.171875 -19.515625 C 4.671875 -20.910156 5.15625 -22.273438 5.625 -23.609375 C 6.09375 -24.953125 6.515625 -26.378906 6.890625 -27.890625 C 7.097656 -28.046875 7.273438 -28.148438 7.421875 -28.203125 C 7.472656 -28.222656 7.535156 -28.242188 7.609375 -28.265625 C 7.691406 -28.296875 7.785156 -28.3125 7.890625 -28.3125 C 8.421875 -28.03125 9.046875 -27.769531 9.765625 -27.53125 C 10.484375 -27.289062 11.09375 -27.171875 11.59375 -27.171875 L 12.25 -26.609375 C 12.570312 -26.234375 12.851562 -25.832031 13.09375 -25.40625 C 13.332031 -24.988281 13.398438 -24.453125 13.296875 -23.796875 C 13.148438 -23.578125 13.023438 -23.441406 12.921875 -23.390625 C 12.773438 -22.804688 12.613281 -22.289062 12.4375 -21.84375 C 12.257812 -21.40625 12.082031 -20.984375 11.90625 -20.578125 C 11.695312 -20.128906 11.503906 -19.675781 11.328125 -19.21875 C 11.148438 -18.757812 11 -18.203125 10.875 -17.546875 C 10.726562 -17.367188 10.632812 -17.21875 10.59375 -17.09375 C 10.550781 -16.96875 10.507812 -16.84375 10.46875 -16.71875 C 10.414062 -16.5625 10.347656 -16.398438 10.265625 -16.234375 C 10.191406 -16.078125 10.082031 -15.9375 9.9375 -15.8125 C 9.832031 -15.019531 9.675781 -14.378906 9.46875 -13.890625 C 9.269531 -13.398438 9.070312 -12.914062 8.875 -12.4375 C 8.519531 -11.550781 8.1875 -10.671875 7.875 -9.796875 C 7.570312 -8.921875 7.398438 -7.929688 7.359375 -6.828125 C 7.660156 -6.898438 7.9375 -6.9375 8.1875 -6.9375 C 8.519531 -6.9375 8.835938 -6.882812 9.140625 -6.78125 C 10.046875 -7.238281 11.035156 -7.515625 12.109375 -7.609375 C 13.179688 -7.710938 14.25 -7.78125 15.3125 -7.8125 C 16.195312 -7.8125 17.019531 -7.847656 17.78125 -7.921875 C 18.03125 -7.742188 18.191406 -7.648438 18.265625 -7.640625 C 18.347656 -7.628906 18.472656 -7.625 18.640625 -7.625 C 18.722656 -7.625 18.800781 -7.625 18.875 -7.625 C 18.945312 -7.625 19.046875 -7.609375 19.171875 -7.578125 C 19.523438 -7.222656 19.863281 -6.976562 20.1875 -6.84375 C 20.519531 -6.707031 20.878906 -6.570312 21.265625 -6.4375 C 21.585938 -6.3125 21.90625 -6.179688 22.21875 -6.046875 C 22.539062 -5.910156 22.851562 -5.726562 23.15625 -5.5 L 23.5 -3.5625 C 23.695312 -3.28125 23.785156 -3.09375 23.765625 -3 C 23.765625 -2.789062 23.710938 -2.613281 23.609375 -2.46875 L 23.6875 -1.96875 C 23.207031 -1.863281 22.890625 -1.753906 22.734375 -1.640625 C 22.585938 -1.535156 22.425781 -1.394531 22.25 -1.21875 C 21.96875 -1.1875 21.703125 -1.171875 21.453125 -1.171875 C 20.941406 -1.171875 20.425781 -1.097656 19.90625 -0.953125 C 19.144531 -1.222656 18.304688 -1.359375 17.390625 -1.359375 C 17.035156 -1.359375 16.675781 -1.34375 16.3125 -1.3125 C 15.945312 -1.289062 15.585938 -1.257812 15.234375 -1.21875 C 14.859375 -1.164062 14.476562 -1.117188 14.09375 -1.078125 C 13.71875 -1.035156 13.34375 -1.015625 12.96875 -1.015625 C 12.664062 -0.972656 12.445312 -0.9375 12.3125 -0.90625 C 12.1875 -0.882812 12.0625 -0.847656 11.9375 -0.796875 C 11.082031 -0.515625 10.15625 -0.238281 9.15625 0.03125 C 8.15625 0.3125 7.148438 0.453125 6.140625 0.453125 C 4.648438 0.453125 3.453125 0.0703125 2.546875 -0.6875 C 2.441406 -0.90625 2.363281 -1.050781 2.3125 -1.125 C 2.257812 -1.207031 2.207031 -1.300781 2.15625 -1.40625 Z M 2.15625 -1.40625 "/></g></g></g><g fill="#8a3324" fill-opacity="1"><g transform="translate(13.660272, 53.17175)"><g><path d="M 20.203125 -11.578125 C 20.597656 -11.523438 20.878906 -11.429688 21.046875 -11.296875 C 21.210938 -11.171875 21.328125 -11.007812 21.390625 -10.8125 C 21.453125 -10.625 21.472656 -10.410156 21.453125 -10.171875 C 21.429688 -9.941406 21.421875 -9.710938 21.421875 -9.484375 C 20.765625 -9.046875 19.863281 -8.738281 18.71875 -8.5625 C 17.582031 -8.394531 16.394531 -8.28125 15.15625 -8.21875 C 13.914062 -8.15625 12.710938 -8.125 11.546875 -8.125 C 10.378906 -8.125 9.457031 -8.082031 8.78125 -8 C 7.382812 -7.84375 6.300781 -7.691406 5.53125 -7.546875 C 4.769531 -7.410156 4.25 -7.28125 3.96875 -7.15625 C 3.46875 -7.175781 3.078125 -7.265625 2.796875 -7.421875 C 2.515625 -7.578125 2.28125 -7.765625 2.09375 -7.984375 C 1.914062 -8.203125 1.757812 -8.453125 1.625 -8.734375 C 1.5 -9.023438 1.347656 -9.328125 1.171875 -9.640625 C 1.273438 -9.847656 1.300781 -10.144531 1.25 -10.53125 C 1.195312 -10.914062 1.039062 -11.210938 0.78125 -11.421875 C 0.988281 -11.453125 1.144531 -11.601562 1.25 -11.875 C 1.351562 -12.144531 1.351562 -12.34375 1.25 -12.46875 C 1.65625 -12.570312 2.097656 -12.644531 2.578125 -12.6875 C 3.054688 -12.726562 3.53125 -12.757812 4 -12.78125 C 4.46875 -12.8125 4.914062 -12.859375 5.34375 -12.921875 C 5.769531 -12.984375 6.140625 -13.09375 6.453125 -13.25 C 7.742188 -13.28125 9.082031 -13.320312 10.46875 -13.375 C 11.851562 -13.425781 13.15625 -13.476562 14.375 -13.53125 C 14.820312 -13.394531 15.34375 -13.320312 15.9375 -13.3125 C 16.53125 -13.300781 17.109375 -13.257812 17.671875 -13.1875 C 18.242188 -13.125 18.765625 -12.972656 19.234375 -12.734375 C 19.703125 -12.503906 20.023438 -12.117188 20.203125 -11.578125 Z M 20.203125 -11.578125 "/></g></g></g></svg>