<svg xmlns="http://www.w3.org/2000/svg" xmlns:xlink="http://www.w3.org/1999/xlink" width="86" zoomAndPan="magnify" viewBox="0 0 64.5 92.999996" height="124" preserveAspectRatio="xMidYMid meet" version="1.0"><defs><g/><clipPath id="3bc4057ba7"><path d="M 15.003906 35 L 32 35 L 32 73 L 15.003906 73 Z M 15.003906 35 " clip-rule="nonzero"/></clipPath><clipPath id="e62c61ff74"><path d="M 26 28.210938 L 32 28.210938 L 32 35 L 26 35 Z M 26 28.210938 " clip-rule="nonzero"/></clipPath><clipPath id="ccdd8429b8"><path d="M 15.003906 36 L 17 36 L 17 39 L 15.003906 39 Z M 15.003906 36 " clip-rule="nonzero"/></clipPath><clipPath id="4353f118ce"><path d="M 35 35 L 52.863281 35 L 52.863281 73 L 35 73 Z M 35 35 " clip-rule="nonzero"/></clipPath><clipPath id="7b2b784eae"><path d="M 36 28.210938 L 42 28.210938 L 42 35 L 36 35 Z M 36 28.210938 " clip-rule="nonzero"/></clipPath><clipPath id="70b6d19464"><path d="M 50 36 L 52.863281 36 L 52.863281 39 L 50 39 Z M 50 36 " clip-rule="nonzero"/></clipPath></defs><g clip-path="url(#3bc4057ba7)"><path fill="#8a3324" d="M 16.027344 48.511719 C 16.816406 51.105469 17.882812 53.617188 18.539062 56.261719 C 19.199219 58.90625 19.75 61.613281 19.960938 64.335938 C 20.039062 65.375 19.75 66.375 19.894531 67.441406 C 20.054688 68.546875 20.5 69.609375 21.199219 70.480469 C 22.816406 72.519531 25.628906 73.4375 28.035156 72.386719 C 30.285156 71.414062 31.785156 69.097656 31.785156 66.664062 C 31.785156 63.519531 29.46875 61.5625 27.472656 59.429688 C 26.367188 58.246094 25.3125 56.996094 24.65625 55.511719 C 24.011719 54.023438 23.816406 52.289062 24.460938 50.800781 C 25.089844 49.328125 26.378906 48.433594 27.617188 47.527344 C 28.800781 46.660156 29.851562 45.371094 30.601562 44.09375 C 31.863281 41.988281 32.628906 39.003906 30.984375 36.871094 C 30.074219 35.675781 28.523438 35.019531 26.65625 35.019531 C 23.472656 35.019531 20.421875 36.792969 18.066406 38.804688 C 17.105469 39.621094 16.265625 40.621094 15.792969 41.792969 C 15.054688 43.59375 15.226562 45.644531 15.738281 47.527344 C 15.832031 47.855469 15.9375 48.183594 16.027344 48.511719 Z M 16.027344 48.511719 " fill-opacity="1" fill-rule="nonzero"/></g><g clip-path="url(#e62c61ff74)"><path fill="#8a3324" d="M 26.601562 31.46875 C 26.589844 33.253906 27.589844 34.335938 28.824219 34.347656 C 30.074219 34.359375 31.089844 33.296875 31.101562 31.507812 C 31.113281 29.71875 30.128906 28.269531 28.878906 28.257812 C 27.640625 28.246094 26.617188 29.679688 26.601562 31.46875 Z M 26.601562 31.46875 " fill-opacity="1" fill-rule="nonzero"/></g><path fill="#8a3324" d="M 22.574219 31.785156 C 22.59375 31.527344 22.652344 31.285156 22.746094 31.054688 C 22.84375 30.824219 22.972656 30.625 23.128906 30.457031 C 23.289062 30.285156 23.464844 30.160156 23.660156 30.078125 C 23.855469 29.996094 24.054688 29.960938 24.257812 29.976562 C 24.460938 29.992188 24.65625 30.058594 24.835938 30.171875 C 25.015625 30.285156 25.167969 30.4375 25.300781 30.628906 C 25.429688 30.820312 25.523438 31.035156 25.582031 31.28125 C 25.640625 31.523438 25.660156 31.769531 25.640625 32.027344 C 25.621094 32.28125 25.5625 32.523438 25.464844 32.753906 C 25.371094 32.984375 25.242188 33.183594 25.082031 33.355469 C 24.925781 33.523438 24.75 33.648438 24.554688 33.730469 C 24.359375 33.816406 24.15625 33.847656 23.953125 33.832031 C 23.75 33.816406 23.558594 33.753906 23.378906 33.640625 C 23.199219 33.527344 23.042969 33.375 22.914062 33.183594 C 22.785156 32.988281 22.691406 32.773438 22.632812 32.53125 C 22.570312 32.289062 22.550781 32.039062 22.574219 31.785156 Z M 22.574219 31.785156 " fill-opacity="1" fill-rule="nonzero"/><path fill="#8a3324" d="M 19.667969 33.546875 C 19.671875 33.339844 19.707031 33.144531 19.769531 32.953125 C 19.835938 32.765625 19.925781 32.597656 20.039062 32.457031 C 20.15625 32.3125 20.285156 32.203125 20.433594 32.128906 C 20.582031 32.050781 20.734375 32.015625 20.894531 32.019531 C 21.054688 32.019531 21.203125 32.0625 21.351562 32.144531 C 21.496094 32.226562 21.621094 32.339844 21.730469 32.488281 C 21.839844 32.636719 21.925781 32.804688 21.980469 32.996094 C 22.039062 33.1875 22.066406 33.386719 22.0625 33.59375 C 22.058594 33.800781 22.023438 33.996094 21.957031 34.183594 C 21.894531 34.375 21.804688 34.539062 21.6875 34.683594 C 21.574219 34.828125 21.441406 34.9375 21.292969 35.011719 C 21.144531 35.089844 20.992188 35.125 20.832031 35.121094 C 20.675781 35.117188 20.523438 35.074219 20.378906 34.996094 C 20.234375 34.914062 20.105469 34.796875 19.996094 34.652344 C 19.886719 34.503906 19.804688 34.332031 19.746094 34.140625 C 19.691406 33.949219 19.664062 33.753906 19.667969 33.546875 Z M 19.667969 33.546875 " fill-opacity="1" fill-rule="nonzero"/><path fill="#8a3324" d="M 17.289062 35.773438 C 17.246094 35.605469 17.234375 35.4375 17.246094 35.269531 C 17.257812 35.101562 17.292969 34.949219 17.355469 34.808594 C 17.417969 34.667969 17.5 34.550781 17.605469 34.457031 C 17.707031 34.363281 17.824219 34.304688 17.953125 34.273438 C 18.082031 34.242188 18.214844 34.242188 18.347656 34.277344 C 18.484375 34.3125 18.609375 34.378906 18.730469 34.476562 C 18.851562 34.574219 18.953125 34.691406 19.039062 34.835938 C 19.125 34.980469 19.191406 35.132812 19.230469 35.300781 C 19.273438 35.46875 19.285156 35.636719 19.273438 35.804688 C 19.261719 35.972656 19.226562 36.125 19.164062 36.265625 C 19.101562 36.40625 19.015625 36.523438 18.914062 36.617188 C 18.808594 36.710938 18.695312 36.773438 18.566406 36.804688 C 18.4375 36.835938 18.304688 36.832031 18.171875 36.796875 C 18.035156 36.761719 17.910156 36.695312 17.789062 36.597656 C 17.667969 36.5 17.566406 36.382812 17.480469 36.238281 C 17.390625 36.097656 17.328125 35.941406 17.289062 35.773438 Z M 17.289062 35.773438 " fill-opacity="1" fill-rule="nonzero"/><g clip-path="url(#ccdd8429b8)"><path fill="#8a3324" d="M 15.160156 37.808594 C 15.304688 38.515625 15.816406 38.976562 16.304688 38.847656 C 16.792969 38.714844 17.054688 38.03125 16.894531 37.332031 C 16.75 36.625 16.238281 36.164062 15.753906 36.292969 C 15.277344 36.425781 15.003906 37.097656 15.160156 37.808594 Z M 15.160156 37.808594 " fill-opacity="1" fill-rule="nonzero"/></g><g clip-path="url(#4353f118ce)"><path fill="#8a3324" d="M 51.753906 48.511719 C 50.960938 51.105469 49.898438 53.617188 49.238281 56.261719 C 48.582031 58.90625 48.03125 61.613281 47.820312 64.335938 C 47.742188 65.375 48.03125 66.375 47.886719 67.441406 C 47.726562 68.546875 47.28125 69.609375 46.582031 70.480469 C 44.964844 72.519531 42.148438 73.4375 39.742188 72.386719 C 37.492188 71.414062 35.996094 69.097656 35.996094 66.664062 C 35.996094 63.519531 38.308594 61.5625 40.308594 59.429688 C 41.414062 58.246094 42.464844 56.996094 43.125 55.511719 C 43.769531 54.023438 43.964844 52.289062 43.320312 50.800781 C 42.691406 49.328125 41.402344 48.433594 40.164062 47.527344 C 38.980469 46.660156 37.929688 45.371094 37.179688 44.09375 C 35.914062 41.988281 35.152344 39.003906 36.796875 36.871094 C 37.703125 35.675781 39.257812 35.019531 41.125 35.019531 C 44.308594 35.019531 47.359375 36.792969 49.714844 38.804688 C 50.671875 39.621094 51.515625 40.621094 51.988281 41.792969 C 52.726562 43.59375 52.554688 45.644531 52.042969 47.527344 C 51.949219 47.855469 51.84375 48.183594 51.753906 48.511719 Z M 51.753906 48.511719 " fill-opacity="1" fill-rule="nonzero"/></g><g clip-path="url(#7b2b784eae)"><path fill="#8a3324" d="M 41.175781 31.46875 C 41.191406 33.253906 40.191406 34.335938 38.953125 34.347656 C 37.703125 34.359375 36.691406 33.296875 36.679688 31.507812 C 36.664062 29.71875 37.652344 28.269531 38.902344 28.257812 C 40.136719 28.246094 41.164062 29.679688 41.175781 31.46875 Z M 41.175781 31.46875 " fill-opacity="1" fill-rule="nonzero"/></g><path fill="#8a3324" d="M 45.210938 31.78125 C 45.230469 32.035156 45.210938 32.285156 45.152344 32.527344 C 45.09375 32.769531 45 32.984375 44.867188 33.179688 C 44.738281 33.371094 44.585938 33.523438 44.402344 33.636719 C 44.222656 33.75 44.03125 33.8125 43.828125 33.828125 C 43.625 33.84375 43.425781 33.8125 43.230469 33.726562 C 43.035156 33.644531 42.855469 33.519531 42.699219 33.351562 C 42.542969 33.179688 42.414062 32.980469 42.316406 32.75 C 42.222656 32.519531 42.164062 32.277344 42.140625 32.023438 C 42.121094 31.765625 42.140625 31.519531 42.199219 31.277344 C 42.261719 31.035156 42.355469 30.816406 42.484375 30.625 C 42.613281 30.433594 42.769531 30.28125 42.949219 30.167969 C 43.128906 30.054688 43.320312 29.988281 43.523438 29.972656 C 43.726562 29.957031 43.925781 29.992188 44.121094 30.074219 C 44.316406 30.15625 44.496094 30.28125 44.652344 30.453125 C 44.8125 30.621094 44.9375 30.820312 45.035156 31.050781 C 45.132812 31.28125 45.191406 31.523438 45.210938 31.78125 Z M 45.210938 31.78125 " fill-opacity="1" fill-rule="nonzero"/><path fill="#8a3324" d="M 48.121094 33.546875 C 48.125 33.753906 48.097656 33.953125 48.042969 34.144531 C 47.984375 34.335938 47.902344 34.503906 47.792969 34.652344 C 47.683594 34.800781 47.554688 34.914062 47.410156 34.996094 C 47.265625 35.078125 47.113281 35.121094 46.953125 35.121094 C 46.796875 35.125 46.640625 35.089844 46.496094 35.015625 C 46.347656 34.9375 46.214844 34.828125 46.097656 34.683594 C 45.984375 34.542969 45.894531 34.375 45.832031 34.1875 C 45.765625 33.996094 45.730469 33.800781 45.726562 33.59375 C 45.722656 33.390625 45.75 33.191406 45.808594 33 C 45.863281 32.808594 45.949219 32.636719 46.058594 32.492188 C 46.167969 32.34375 46.292969 32.226562 46.4375 32.148438 C 46.582031 32.066406 46.734375 32.023438 46.894531 32.019531 C 47.054688 32.015625 47.207031 32.054688 47.355469 32.128906 C 47.503906 32.203125 47.632812 32.3125 47.75 32.457031 C 47.863281 32.601562 47.953125 32.765625 48.019531 32.957031 C 48.082031 33.144531 48.117188 33.34375 48.121094 33.546875 Z M 48.121094 33.546875 " fill-opacity="1" fill-rule="nonzero"/><path fill="#8a3324" d="M 50.5 35.78125 C 50.457031 35.949219 50.394531 36.105469 50.308594 36.25 C 50.222656 36.390625 50.117188 36.511719 49.996094 36.609375 C 49.878906 36.703125 49.75 36.769531 49.617188 36.804688 C 49.480469 36.84375 49.351562 36.84375 49.222656 36.8125 C 49.09375 36.78125 48.976562 36.71875 48.871094 36.625 C 48.769531 36.535156 48.6875 36.417969 48.625 36.277344 C 48.5625 36.136719 48.523438 35.980469 48.511719 35.816406 C 48.5 35.648438 48.515625 35.480469 48.554688 35.3125 C 48.597656 35.144531 48.660156 34.988281 48.746094 34.847656 C 48.832031 34.703125 48.9375 34.582031 49.058594 34.484375 C 49.175781 34.390625 49.304688 34.324219 49.4375 34.289062 C 49.574219 34.253906 49.703125 34.25 49.832031 34.28125 C 49.960938 34.3125 50.078125 34.375 50.183594 34.46875 C 50.285156 34.5625 50.367188 34.679688 50.429688 34.820312 C 50.492188 34.960938 50.53125 35.113281 50.542969 35.28125 C 50.554688 35.445312 50.539062 35.613281 50.5 35.78125 Z M 50.5 35.78125 " fill-opacity="1" fill-rule="nonzero"/><g clip-path="url(#70b6d19464)"><path fill="#8a3324" d="M 52.621094 37.808594 C 52.476562 38.515625 51.960938 38.976562 51.476562 38.847656 C 50.988281 38.714844 50.726562 38.03125 50.882812 37.332031 C 51.027344 36.625 51.542969 36.164062 52.027344 36.292969 C 52.5 36.425781 52.777344 37.097656 52.621094 37.808594 Z M 52.621094 37.808594 " fill-opacity="1" fill-rule="nonzero"/></g><g fill="#8a3324" fill-opacity="1"><g transform="translate(16.849184, 65.858266)"><g><path d="M 24.9375 -14.28125 C 25.414062 -14.21875 25.753906 -14.109375 25.953125 -13.953125 C 26.160156 -13.796875 26.304688 -13.597656 26.390625 -13.359375 C 26.472656 -13.117188 26.5 -12.851562 26.46875 -12.5625 C 26.4375 -12.269531 26.421875 -11.984375 26.421875 -11.703125 C 25.617188 -11.160156 24.515625 -10.785156 23.109375 -10.578125 C 21.703125 -10.367188 20.226562 -10.222656 18.6875 -10.140625 C 17.15625 -10.054688 15.671875 -10.015625 14.234375 -10.015625 C 12.796875 -10.015625 11.660156 -9.96875 10.828125 -9.875 C 9.109375 -9.6875 7.773438 -9.503906 6.828125 -9.328125 C 5.890625 -9.148438 5.242188 -8.984375 4.890625 -8.828125 C 4.285156 -8.859375 3.804688 -8.96875 3.453125 -9.15625 C 3.097656 -9.34375 2.804688 -9.570312 2.578125 -9.84375 C 2.359375 -10.125 2.171875 -10.4375 2.015625 -10.78125 C 1.859375 -11.132812 1.664062 -11.503906 1.4375 -11.890625 C 1.5625 -12.148438 1.59375 -12.519531 1.53125 -13 C 1.46875 -13.476562 1.273438 -13.84375 0.953125 -14.09375 C 1.210938 -14.125 1.40625 -14.304688 1.53125 -14.640625 C 1.65625 -14.984375 1.65625 -15.234375 1.53125 -15.390625 C 2.039062 -15.515625 2.59375 -15.597656 3.1875 -15.640625 C 3.78125 -15.691406 4.363281 -15.734375 4.9375 -15.765625 C 5.507812 -15.804688 6.0625 -15.863281 6.59375 -15.9375 C 7.125 -16.019531 7.578125 -16.15625 7.953125 -16.34375 C 9.554688 -16.375 11.210938 -16.421875 12.921875 -16.484375 C 14.628906 -16.554688 16.234375 -16.625 17.734375 -16.6875 C 18.273438 -16.519531 18.914062 -16.425781 19.65625 -16.40625 C 20.394531 -16.394531 21.113281 -16.347656 21.8125 -16.265625 C 22.519531 -16.191406 23.160156 -16.007812 23.734375 -15.71875 C 24.304688 -15.4375 24.707031 -14.957031 24.9375 -14.28125 Z M 24.9375 -14.28125 "/></g></g></g></svg>